<?xml version="1.0" encoding="utf-8"?>
<!-- Generator: Adobe Illustrator 21.1.0, SVG Export Plug-In . SVG Version: 6.00 Build 0)  -->
<svg version="1.1" id="Layer_1" xmlns="http://www.w3.org/2000/svg" xmlns:xlink="http://www.w3.org/1999/xlink" x="0px" y="0px"
	 viewBox="0 0 386.5 68" style="enable-background:new 0 0 386.5 68;" xml:space="preserve">
<style type="text/css">
	.st0{fill:#003056;}
	.st1{fill:none;stroke:#003056;stroke-width:0.75;}
	.st2{fill:none;stroke:#003056;stroke-width:0.75;stroke-linecap:round;stroke-miterlimit:10;}
</style>
<g>
	<path class="st0" d="M13.6,63h-1.1L9.8,52.4h0L7.2,63H6L2.9,50.7h1.2L6.6,61h0l2.5-10.3h1.3L13,61h0l2.5-10.3h1.2L13.6,63z"/>
	<path class="st0" d="M21.7,63V50.7H29v1.1h-6.1v4.1h4.5V57h-4.5v4.9h6.6V63H21.7z"/>
	<path class="st0" d="M42.3,63l-1.3-3.8h-5L34.9,63h-1.2l4.2-12.3h1.6L43.5,63H42.3z M38.6,51.8L38.6,51.8l-2.1,6.3h4.2L38.6,51.8z"
		/>
	<path class="st0" d="M48.5,63V50.7h1.2v11.2h5.9V63H48.5z"/>
	<path class="st0" d="M62.6,51.8V63h-1.2V51.8h-3.9v-1.1h9v1.1H62.6z"/>
	<path class="st0" d="M79.1,63v-5.9h-6.5V63h-1.2V50.7h1.2V56h6.5v-5.3h1.2V63H79.1z"/>
	<path class="st0" d="M113.9,51.8V63h-1.2V51.8h-3.9v-1.1h9v1.1H113.9z"/>
	<path class="st0" d="M130,63l-2.8-5.6h-3.3V63h-1.2V50.7h4.2c2.6,0,4.2,1.1,4.2,3.3c0,1.8-1.1,2.8-2.7,3.3l3,5.8H130z M126.9,51.8
		h-3v4.6h2.8c2,0,3.2-0.6,3.2-2.4C129.9,52.3,128.8,51.8,126.9,51.8z"/>
	<path class="st0" d="M140.7,63.2c-3.1,0-4.4-2-4.4-4.3v-8.2h1.2v7.9c0,1.9,0.8,3.6,3.3,3.6c2.4,0,3.3-1.4,3.3-3.4v-8h1.2v8.1
		C145.2,61.2,143.9,63.2,140.7,63.2z"/>
	<path class="st0" d="M154.9,63.2c-2.5,0-4.1-1.4-4.5-3.3l1.2-0.3c0.4,1.8,1.6,2.6,3.3,2.6c1.9,0,3.1-0.9,3.1-2.3
		c0-1.2-0.6-1.9-3.2-2.7c-2.7-0.9-3.9-1.6-3.9-3.6c0-1.8,1.6-3.2,3.8-3.2c2.4,0,3.8,1.3,4.2,2.9l-1.2,0.3c-0.5-1.6-1.6-2.2-3-2.2
		c-1.6,0-2.7,1-2.7,2c0,1.3,0.7,1.8,3.3,2.6c2.7,0.8,3.8,1.7,3.8,3.7C159.1,62,157.2,63.2,154.9,63.2z"/>
	<path class="st0" d="M168.1,51.8V63h-1.2V51.8H163v-1.1h9v1.1H168.1z"/>
	<path class="st0" d="M204.5,57.5h-2.8V63h-1.2V50.7h4.3c2.6,0,4.2,1.1,4.2,3.3C209,56.4,207.1,57.5,204.5,57.5z M204.7,51.8h-3v4.6
		h2.8c2,0,3.2-0.6,3.2-2.4C207.8,52.3,206.6,51.8,204.7,51.8z"/>
	<path class="st0" d="M221.3,63l-2.8-5.6h-3.3V63H214V50.7h4.2c2.6,0,4.2,1.1,4.2,3.3c0,1.8-1.1,2.8-2.7,3.3l3,5.8H221.3z
		 M218.2,51.8h-3v4.6h2.8c2,0,3.2-0.6,3.2-2.4C221.2,52.3,220.1,51.8,218.2,51.8z"/>
	<path class="st0" d="M228.2,63V50.7h1.2V63H228.2z"/>
	<path class="st0" d="M240,63h-1.1l-4.2-12.3h1.2l3.5,10.6h0l3.5-10.6h1.2L240,63z"/>
	<path class="st0" d="M255.2,63l-1.3-3.8h-5l-1.3,3.8h-1.2l4.2-12.3h1.6l4.2,12.3H255.2z M251.5,51.8L251.5,51.8l-2.1,6.3h4.2
		L251.5,51.8z"/>
	<path class="st0" d="M264.1,51.8V63h-1.2V51.8H259v-1.1h9v1.1H264.1z"/>
	<path class="st0" d="M272.9,63V50.7h7.2v1.1H274v4.1h4.5V57H274v4.9h6.6V63H272.9z"/>
	<path class="st0" d="M298.4,63h-4.8V50.7h4.6c3,0,4.1,1.4,4.1,3.1c0,1.4-0.8,2.4-2.2,2.8v0c1.7,0.4,2.6,1.5,2.6,3
		C302.6,61.5,301.5,63,298.4,63z M298.3,51.8h-3.5v4.4h3.3c1.8,0,2.9-0.7,2.9-2.2C301.1,52.6,300.2,51.8,298.3,51.8z M298.1,57.2
		h-3.3v4.7h3.6c1.9,0,3-0.8,3-2.4C301.4,57.9,300.1,57.2,298.1,57.2z"/>
	<path class="st0" d="M315.2,63l-1.3-3.8h-5l-1.3,3.8h-1.2l4.2-12.3h1.6l4.2,12.3H315.2z M311.5,51.8L311.5,51.8l-2.1,6.3h4.2
		L311.5,51.8z"/>
	<path class="st0" d="M329.4,63l-6.8-10.7h0V63h-1.1V50.7h1.5l6.5,10.1h0V50.7h1.1V63H329.4z"/>
	<path class="st0" d="M344,63l-4.2-6.7l-2.2,2.5V63h-1.2V50.7h1.2v6.5l5.8-6.5h1.5l-4.2,4.7l4.8,7.6H344z"/>
	<path class="st0" d="M350.2,63V50.7h1.2V63H350.2z"/>
	<path class="st0" d="M365.6,63l-6.8-10.7h0V63h-1.1V50.7h1.5l6.5,10.1h0V50.7h1.1V63H365.6z"/>
	<path class="st0" d="M380.5,63v-1.7h0c-0.6,1.1-1.7,2-3.6,2c-3.4,0-5-3-5-6.3c0-4.6,2.6-6.4,5.2-6.4c2.4,0,3.9,1.4,4.4,3.7
		l-1.1,0.2c-0.6-2-1.5-2.9-3.3-2.9c-2,0-3.9,1.4-3.9,5.3c0,2.9,1.2,5.4,3.9,5.4c2.2,0,3.5-1.5,3.5-3.9h-3.2v-1.1h4.3V63H380.5z"/>
</g>
<rect x="93" y="54.4" class="st1" width="4.7" height="4.7"/>
<rect x="182.6" y="54.4" class="st1" width="4.7" height="4.7"/>
<g>
	<path class="st0" d="M5.3,6.9c0-1.2-0.5-1.5-2.1-1.8V4.5h10.2c4.5,0,9.5,0.9,9.5,6.2c0,3.3-2.3,4.9-5.3,5.8v0.1
		c4,0.5,7.6,2.1,7.6,6.6c0,4-3.8,7.9-11.5,7.9H3.2v-0.6c1.6-0.3,2.1-0.6,2.1-1.8V6.9z M9.4,15.8h2.3c4.8,0,7.3-1.7,7.3-4.6
		c0-3.3-2.6-4.6-5.7-4.6H9.4V15.8z M9.4,29h2.9c5.4,0,8.8-1.8,8.8-5.3c0-3.8-2.8-5.5-7.4-5.5H9.4V29z"/>
	<path class="st0" d="M46.6,3.8c9.3,0,13,7.5,13,13.6c0,7.2-5.3,14.3-13.6,14.3c-8.4,0-13.1-6.3-13.1-13.9
		C32.9,9.7,40.1,3.8,46.6,3.8z M47,28.9c4.4,0,8.7-3.3,8.7-9.9c0-7.3-5-12.3-10.3-12.3c-3.1,0-8.7,2.4-8.7,10.1
		C36.7,22.7,40.6,28.9,47,28.9z"/>
	<path class="st0" d="M68.2,23.3c1,4,4.1,6.1,8.2,6.1c3.1,0,6.5-1.6,6.5-5.4c0-3.3-2-4-4.9-4.6c-7.2-1.4-11.1-2.7-11.1-7.8
		c0-4.1,4.4-7.7,11.1-7.7c1.8,0,5.4,0.5,6.9,1.4c0,1.9,0,3.9,0.2,5.8h-0.8c-0.6-3.6-4-4.9-6.9-4.9c-4.5,0-6.8,2.1-6.8,4.8
		c0,3,1.6,3.5,6.8,4.5c5.2,1,9.2,2.1,9.2,7.7c0,4.6-3.5,8.6-11.3,8.6c-2.6,0-5.2-0.5-7.6-2c0-2.2-0.1-4.3-0.3-6.5H68.2z"/>
	<path class="st0" d="M102.6,6.9h-3.8c-2.3,0-3.5,0.8-4.3,4.5h-0.8c0.3-2.3,0.5-4.6,0.7-6.9H115c0.1,2.3,0.4,4.6,0.7,6.9h-0.8
		c-0.8-3.8-1.9-4.5-4.3-4.5h-3.8v21.4c0,1.4,0.5,2.2,2.6,2.4v0.6c-1.6,0-3.4-0.3-4.7-0.3c-1.3,0-3.1,0.3-4.7,0.3v-0.6
		c2.1-0.3,2.6-1,2.6-2.4V6.9z"/>
	<path class="st0" d="M340.9,6.9h-3.8c-2.3,0-3.5,0.8-4.3,4.5H332c0.3-2.3,0.5-4.6,0.7-6.9h20.7c0.1,2.3,0.4,4.6,0.7,6.9h-0.8
		c-0.8-3.8-1.9-4.5-4.3-4.5H345v21.4c0,1.4,0.5,2.2,2.6,2.4v0.6c-1.6,0-3.4-0.3-4.7-0.3c-1.3,0-3.1,0.3-4.7,0.3v-0.6
		c2.1-0.3,2.6-1,2.6-2.4V6.9z"/>
	<path class="st0" d="M135.5,3.8c9.3,0,13,7.5,13,13.6c0,7.2-5.3,14.3-13.6,14.3c-8.4,0-13.1-6.3-13.1-13.9
		C121.8,9.7,129,3.8,135.5,3.8z M135.9,28.9c4.4,0,8.7-3.3,8.7-9.9c0-7.3-5-12.3-10.3-12.3c-3.1,0-8.7,2.4-8.7,10.1
		C125.6,22.7,129.4,28.9,135.9,28.9z"/>
	<path class="st0" d="M157.1,6.6c0-1.2-0.5-1.5-2.1-1.8V4.3c1.2,0,2.4,0.3,3.6,0.3c1.1,0,2.1-0.3,3.1-0.3l14.2,19.5h0.1V8.7
		c0-2.8-0.7-3.4-2.9-3.8V4.3c1.2,0,2.3,0.3,3.5,0.3c1.4,0,2.8-0.3,4.1-0.3v0.6c-1.6,0.3-2.1,0.6-2.1,1.8v24.7h-2.5L159.8,8.9h-0.1
		v18c0,2.8,0.7,3.4,2.9,3.8v0.6c-1.2,0-2.3-0.3-3.5-0.3c-1.4,0-2.8,0.3-4.1,0.3v-0.6c1.6-0.3,2.1-0.6,2.1-1.8V6.6z"/>
	<g>
		<path class="st0" d="M208.1,6.9c0-1.2-0.5-1.5-2-1.8V4.5h11.6c5.2,0,7.8,3.2,7.8,7.8c0,5.1-3.8,8.4-9.1,8.4c-1,0-3.1-0.4-3.8-1.1
			c-0.1-0.1-0.2-0.2-0.2-0.4c0-0.2,0.2-0.3,0.6-0.3h2.4c3.7,0,6.6-2.2,6.6-6.1c0-5.4-3.5-6.2-8.9-6.2h-1V29c0,1.2,0.5,1.5,2,1.8v0.6
			c-0.8,0-2.5-0.3-4-0.3c-1.5,0-3.1,0.3-4,0.3v-0.6c1.5-0.3,2-0.6,2-1.8V6.9z"/>
	</g>
	<g>
		<path class="st0" d="M235.5,6.9c0-1.2-0.5-1.5-2-1.8V4.5h11.5c5.3,0,7.1,2.9,7.1,6.4c0,4.3-3.4,6.8-7.2,7.1l7.3,10
			c1.2,1.6,2.2,2.6,3.3,2.8v0.6c-0.7,0-1.4-0.3-2.1-0.3c-1,0-2.1,0.3-3.1,0.3c-0.4-0.1-0.8-0.8-4-5.5l-5.1-7.2
			c-0.5-0.7-0.8-1-0.8-1.2c0-0.3,0.4-0.4,0.8-0.4c4.1,0,7-1.8,7-5.5c0-4-3.4-4.6-6.7-4.6h-2.1V29c0,1.2,0.5,1.5,2,1.8v0.6
			c-0.8,0-2.5-0.3-4-0.3c-1.5,0-3.1,0.3-4,0.3v-0.6c1.5-0.3,2-0.6,2-1.8V6.9z"/>
	</g>
	<g>
		<path class="st0" d="M262.4,30.7c1.5-0.3,2-0.6,2-1.8V6.6c0-1.2-0.5-1.5-2-1.8V4.3c0.8,0,2.5,0.3,4,0.3c1.5,0,3.1-0.3,4-0.3v0.6
			c-1.5,0.3-2,0.6-2,1.8V29c0,1.2,0.5,1.5,2,1.8v0.6c-0.8,0-2.5-0.3-4-0.3c-1.5,0-3.1,0.3-4,0.3V30.7z"/>
	</g>
	<g>
		<path class="st0" d="M278.1,4.3c1.6,0,3.2,0.3,4.8,0.3c1.1,0,2.3-0.3,3.4-0.3v0.6c-1.5,0-2,0.4-2,1.2c0,0.5,0.3,1.3,0.4,1.8
			l6.3,18.6h0.1l5.7-18c0.3-1,0.5-1.8,0.5-2.3c0-0.8-1.1-1.1-1.9-1.3V4.3c1.2,0,2.4,0.3,3.6,0.3c1,0,2-0.3,3-0.3v0.6
			c-1.3,0.2-2,1-2.4,2.3L292,31.3h-2.7l-8.7-24.6c-0.4-0.9-0.7-1.7-2.5-1.9V4.3z"/>
	</g>
	<g>
		<path class="st0" d="M304.8,30.7c1.3,0,1.7-0.5,2.5-2.8l7.1-20.4c0.1-0.4,0.2-0.9,0.2-1.4c0-1-0.4-1.1-1.3-1.3V4.3
			c1,0.1,2,0.3,3,0.3c0.7,0,1.4-0.1,2.1-0.3c0.2,1.2,0.6,2.6,1.3,4.6l6.7,18.5c1,2.8,1.2,3.1,2.7,3.4v0.6c-1,0-2-0.3-3.1-0.3
			c-1.5,0-3.1,0.3-4.6,0.3v-0.6c1.4-0.1,1.8-0.5,1.8-1.3c0-0.8-0.2-1.5-1.1-3.8l-1.6-4.6H312l-1.9,5.8c-0.4,1.1-0.6,2.2-0.6,2.8
			c0,0.6,0.4,1,2.1,1v0.6c-1,0-2.1-0.3-3.1-0.3c-1.2,0-2.4,0.3-3.6,0.3V30.7z M319.8,19l-3.5-10.4h-0.1L312.7,19H319.8z"/>
	</g>
	<path class="st0" d="M363.3,6.9c0-1.2-0.5-1.5-2-1.8V4.5h19.1c0,2.1,0.1,4.1,0.2,6.2h-0.8c-0.5-3.3-1.8-3.8-3.6-3.8h-9.1v9h5.6
		c1.4,0,2.2-0.1,2.5-2.4h0.8c-0.1,1.2-0.2,2.3-0.2,3.6c0,1.3,0.1,2.4,0.2,3.6h-0.8c-0.3-2.3-1.1-2.4-2.5-2.4h-5.6v10.5h8.4
		c3.3,0,4.8-0.7,5.5-4.5h0.8c-0.2,2.3-0.4,4.6-0.4,6.9h-20.1v-0.6c1.5-0.3,2-0.6,2-1.8V6.9z"/>
</g>
<line class="st2" x1="3.4" y1="40.8" x2="381.3" y2="40.3"/>
</svg>
